<svg xmlns="http://www.w3.org/2000/svg" viewBox="0 0 24 24">
  <defs>
    <linearGradient id="grad1" x1="0%" y1="0%" x2="100%" y2="100%">
      <stop offset="0%" style="stop-color:#60a5fa;stop-opacity:1" /> <!-- blue-400 -->
      <stop offset="100%" style="stop-color:#c084fc;stop-opacity:1" /> <!-- purple-400 -->
    </linearGradient>
  </defs>
  <!-- Main star -->
  <path fill="url(#grad1)" d="M12 2L14.39 9.61C14.9 11.24 16.17 12.51 17.8 13.02L25.41 15.41L17.8 17.8C16.17 18.31 14.9 19.58 14.39 21.21L12 28.82L9.61 21.21C9.1 19.58 7.83 18.31 6.2 17.8L-1.41 15.41L6.2 13.02C7.83 12.51 9.1 11.24 9.61 9.61L12 2Z" transform="translate(0, -2) scale(0.8) translate(3,3)" />
  <!-- Small star top right -->
  <path fill="url(#grad1)" d="M19 2L19.6 4.4C19.8 4.9 20.2 5.3 20.7 5.5L23.1 6.1L20.7 6.7C20.2 6.9 19.8 7.3 19.6 7.8L19 10.2L18.4 7.8C18.2 7.3 17.8 6.9 17.3 6.7L14.9 6.1L17.3 5.5C17.8 5.3 18.2 4.9 18.4 4.4L19 2Z" />
  <!-- Small star bottom left -->
  <path fill="url(#grad1)" d="M5 16L5.6 18.4C5.8 18.9 6.2 19.3 6.7 19.5L9.1 20.1L6.7 20.7C6.2 20.9 5.8 21.3 5.6 21.8L5 24.2L4.4 21.8C4.2 21.3 3.8 20.9 3.3 20.7L0.9 20.1L3.3 19.5C3.8 19.3 4.2 18.9 4.4 18.4L5 16Z" />
</svg>
